<?xml version="1.0" ?><svg enable-background="new 0 0 328.898 97" id="Layer_1" version="1.1" viewBox="0 0 328.898 97" xml:space="preserve" xmlns="http://www.w3.org/2000/svg" xmlns:xlink="http://www.w3.org/1999/xlink"><g><g><g><defs><rect height="94.998" id="SVGID_1_" width="322.014" x="3.393" y="1.001"/></defs><clipPath id="SVGID_2_"><use overflow="visible" xlink:href="#SVGID_1_"/></clipPath><path clip-path="url(#SVGID_2_)" d="M57.725,36.878c0.233,6.362-7.61,8.864-11.033,4.07     c-4.373-6.125,0.092-12.724,0.715-19.208c0.781-8.13-3.89-16.018-9.69-20.739c3.195,5.631-1.014,13.079-4.377,17.242     c-3.263,4.04-7.231,7.411-10.83,11.076c-3.868,3.94-7.59,8.088-10.77,12.712C5.378,51.285,1.484,62.922,4.35,74.469     c2.858,11.538,12.024,18.883,22.375,21.48c-5.226-2.463-10.111-8.718-10.123-15.118c-0.011-6.978,4.044-12.9,9.087-16.791     c-0.605,2.498-0.937,4.782,0.566,7.016c1.397,2.077,3.841,3.084,6.151,2.537c5.398-1.285,5.647-7.755,2.444-11.527     c-3.163-3.729-6.224-7.946-5.019-13.358c0.6-2.713,2.131-5.252,4.066-7.07c-1.488,4.266,2.743,8.47,5.525,10.562     c4.836,3.63,10.134,6.378,14.58,10.636c4.671,4.476,8.122,10.528,7.429,17.548c-0.758,7.605-6.305,12.899-12.521,15.57     c13.141-3.16,26.722-14.285,27.001-30.176C76.141,52.7,67.916,42.639,57.725,36.878" fill="#100F0D"/></g></g><path d="M112.052,52.02h-5.642v-0.084c0-3.466-1.378-5.379-5.643-5.379c-6.309,0-8.218,4.219-9.285,11.595   c-0.221,1.691-0.398,3.291-0.398,4.714c0,4.265,1.419,7.108,6.308,7.108c3.153,0,5.999-1.114,8.619-5.245l4.044,2.713   c-2.398,4.132-6.488,7.464-13.374,7.464c-9.063,0-11.596-5.91-11.596-12.353c0-1.462,0.134-2.931,0.356-4.4   c1.553-10.93,5.773-16.706,16.037-16.706c7.556,0,10.62,4.403,10.62,9.465C112.098,51.266,112.098,51.667,112.052,52.02" fill="#100F0D"/><path d="M124.451,54.334c-3.641,0-5.421,1.867-6.308,7.907c-0.18,1.202-0.267,2.265-0.267,3.156   c0,3.596,1.423,4.797,4.311,4.797c3.596,0,5.509-1.867,6.396-7.953c0.176-1.152,0.268-2.176,0.268-3.068   C128.851,55.536,127.382,54.334,124.451,54.334L124.451,54.334z M134.539,62.241c-1.201,8.264-4.801,12.663-13.023,12.663   c-7.02,0-9.549-4.311-9.549-9.729c0-0.933,0.088-1.955,0.218-2.934c1.201-8.397,4.755-12.617,12.977-12.617   c6.974,0,9.599,4.086,9.599,9.595C134.762,60.198,134.67,61.174,134.539,62.241" fill="#100F0D"/><path d="M148.449,54.154c-2.93,0-5.198,1.248-6.22,8.31c-0.18,1.289-0.31,2.487-0.31,3.512   c0,2.708,0.888,4.399,4.132,4.399c1.198,0,3.153-0.271,5.153-1.469l2.001-13.685C151.827,54.468,150.362,54.154,148.449,54.154   L148.449,54.154z M156.357,74.193h-4.266l-0.444-1.732c-1.733,1.469-3.952,2.444-6.221,2.444c-5.375,0-9.372-2.575-9.372-9.372   c0-0.934,0.042-1.956,0.222-3.068c1.331-9.331,5.463-12.839,12.842-12.839c1.553,0,3.864,0.31,5.153,1.286   c-0.268-0.666-0.31-1.11-0.226-1.818l1.381-9.511h5.908L156.357,74.193" fill="#100F0D"/><path d="M173.599,54.334c-3.378,0-5.023,1.285-5.999,5.467h9.774c0.088-0.536,0.134-1.025,0.134-1.469   C177.509,55.711,176.216,54.334,173.599,54.334L173.599,54.334z M182.883,63.975h-16.037c-0.091,0.711-0.137,1.331-0.137,1.913   c0,2.93,1.335,4.307,4.622,4.307c3.067,0,4.801-1.335,6.086-3.286l4.487,1.821c-2.088,4.002-5.999,6.175-11.239,6.175   c-6.753,0-9.82-3.6-9.82-9.599c0-0.975,0.091-2.001,0.221-3.064c1.293-8.753,5.111-12.617,13.241-12.617   c7.379,0,9.063,5.199,9.063,9.641C183.37,60.596,183.106,62.376,182.883,63.975" fill="#100F0D"/><polyline fill="#100F0D" points="200.47,45.933 197.18,45.933 193.63,70.417 196.913,70.417 196.381,74.193 183.852,74.193    184.384,70.417 187.674,70.417 191.228,45.933 187.942,45.933 188.473,42.157 201.002,42.157 200.47,45.933  "/><path d="M213.133,54.288c-3.332,0-5.241,1.913-5.241,5.199c0,2.218,1.419,3.155,3.998,3.155   c3.332,0,5.198-1.779,5.198-5.068C217.089,55.402,215.8,54.288,213.133,54.288L213.133,54.288z M213.711,74.281l-8.351-1.549   c-1.336,1.419-1.913,2.352-1.913,4.35c0,2.268,1.598,3.29,5.864,3.29c2.8,0,6.664-0.444,6.664-4.044   C215.975,75.218,215.398,74.594,213.711,74.281L213.711,74.281z M225.93,54.824h-1.511c-0.399,0-1.378-0.046-2.131-0.402   c0.444,1.067,0.624,2.264,0.624,3.244c0,6.932-5.513,9.595-11.688,9.595c-1.377,0-2.713-0.13-3.867-0.398   c-0.176-0.042-0.353-0.088-0.574-0.088c-0.67,0-1.068,0.356-1.068,1.018c0,0.448,0.221,0.758,1.198,0.937l8.576,1.599   c4.756,0.887,6.397,2.93,6.397,5.555c0,7.686-7.196,9.063-13.241,9.063c-4.797,0-11.064-1.286-11.064-7.288   c0-3.109,1.645-5.772,4.312-7.376c-0.536-0.666-0.8-1.423-0.8-2.131c0-1.602,1.156-2.846,2.487-3.554   c-0.845-1.067-1.553-2.754-1.553-4.713c0-6.974,5.421-10.261,11.772-10.261c2.222,0,4.579,0.399,6.312,1.507l3.11-1.507h4.307   L225.93,54.824" fill="#100F0D"/><path d="M248.512,59.173l-2.177,15.019h-5.91l2.177-15.019c0.092-0.532,0.138-1.064,0.138-1.553   c0-2.043-0.804-3.374-3.022-3.374c-1.822,0-3.956,1.018-5.689,2.085l-2.579,17.862h-5.91l3.424-23.856h4.885l0.403,2.173   c2.754-2.173,4.973-2.885,7.464-2.885c4.977,0,6.978,3.153,6.978,7.377C248.693,57.708,248.601,58.42,248.512,59.173" fill="#100F0D"/><path d="M263.249,45.578c-0.046,0.402-0.046,0.402-0.402,0.402h-5.777c-0.356,0-0.356,0-0.309-0.402l0.799-5.506   c0.042-0.448,0.042-0.49,0.399-0.49h5.776c0.355,0,0.355,0.042,0.31,0.49L263.249,45.578z M262.047,74.594h-3.021   c-3.467,0-5.153-1.511-5.153-4.621c0-0.49,0.046-0.979,0.13-1.553l1.779-12.308c0.046-0.359,0.267-0.891,0.624-1.289h-4.312   l0.624-4.487h9.82l-2.578,18.084c-0.046,0.217-0.046,0.44-0.046,0.62c0,0.532,0.221,0.711,0.887,0.711h1.913L262.047,74.594" fill="#100F0D"/><path d="M282.274,54.824h-6.757l-1.863,12.792c-0.046,0.222-0.046,0.448-0.046,0.624   c0,1.332,0.712,1.955,2.177,1.955c2.043,0,2.976-0.623,4.353-1.465l2.755,3.374c-2.177,1.826-4.977,2.801-8.443,2.801   c-3.73,0-6.841-1.645-6.841-5.864c0-0.445,0-0.934,0.088-1.424l1.599-11.018c0.046-0.444,0.444-1.197,0.841-1.775h-4.17l0.62-4.487   h3.596l1.114-7.732l6.22-1.733l-1.377,9.465h8.176L282.274,54.824" fill="#100F0D"/><g><g><defs><rect height="94.998" id="SVGID_3_" width="322.014" x="3.393" y="1.001"/></defs><clipPath id="SVGID_4_"><use overflow="visible" xlink:href="#SVGID_3_"/></clipPath><path clip-path="url(#SVGID_4_)" d="M296.758,54.334c-3.378,0-5.019,1.285-5.999,5.467h9.774     c0.088-0.536,0.134-1.025,0.134-1.469C300.667,55.711,299.378,54.334,296.758,54.334L296.758,54.334z M306.042,63.975h-16.037     c-0.091,0.711-0.133,1.331-0.133,1.913c0,2.93,1.331,4.307,4.617,4.307c3.068,0,4.802-1.335,6.087-3.286l4.487,1.821     c-2.085,4.002-5.995,6.175-11.239,6.175c-6.753,0-9.817-3.6-9.817-9.599c0-0.975,0.088-2.001,0.222-3.064     c1.285-8.753,5.107-12.617,13.24-12.617c7.373,0,9.063,5.199,9.063,9.641C306.532,60.596,306.264,62.376,306.042,63.975" fill="#100F0D"/></g><g><defs><rect height="94.998" id="SVGID_5_" width="322.014" x="3.393" y="1.001"/></defs><clipPath id="SVGID_6_"><use overflow="visible" xlink:href="#SVGID_5_"/></clipPath><path clip-path="url(#SVGID_6_)" d="M324.746,54.954c-0.975-0.13-1.997-0.222-3.064-0.222     c-1.687,0-3.462,0.268-5.019,1.202l-2.625,18.259h-5.953l3.42-23.856h4.89l0.356,1.909c2.001-1.909,4.002-2.621,6.133-2.621     c0.845,0,1.732,0.134,2.62,0.31L324.746,54.954" fill="#100F0D"/></g></g></g></svg>